<svg width="156" height="155" viewBox="0 0 156 155" fill="none" xmlns="http://www.w3.org/2000/svg">
<g clip-path="url(#clip0_71_2444)">
<path d="M74.4887 62.0464V108.995C74.4887 112.899 73.0984 117.177 68.6067 117.177C66.4678 117.177 65.6657 116.642 65.1844 115.893C69.1061 110.022 71.1909 103.116 71.1734 96.0551C71.1475 91.7989 70.3691 87.5809 68.8741 83.5959C68.8741 82.9542 68.3393 82.3126 68.072 81.6709C65.8414 76.0958 62.0217 71.299 57.0877 67.8766C52.1537 64.4541 46.3228 62.5569 40.3196 62.4207C36.0863 62.5921 31.9288 63.6003 28.0872 65.387C24.2456 67.1738 20.7959 69.7037 17.9373 72.8308C15.0787 75.9579 12.8678 79.6202 11.4321 83.6063C9.99642 87.5924 9.36447 91.8234 9.57272 96.0551C9.36447 100.287 9.99642 104.518 11.4321 108.504C12.8678 112.49 15.0787 116.152 17.9373 119.279C20.7959 122.406 24.2456 124.936 28.0872 126.723C31.9288 128.51 36.0863 129.518 40.3196 129.689C45.44 129.683 50.4643 128.298 54.8642 125.679C58.5193 128.325 62.9178 129.748 67.4303 129.743C72.4346 129.659 77.2653 127.895 81.1451 124.733C85.0248 121.571 87.7279 117.195 88.8194 112.311V62.0464H74.4887ZM47.7523 116.375C45.4352 117.625 42.8458 118.287 40.2126 118.3C30.0528 118.3 21.711 108.247 21.711 95.8412C21.711 83.4355 29.9993 73.3826 40.2126 73.3826C44.0566 73.5946 47.7417 74.9868 50.7656 77.3695C53.7894 79.7523 56.0049 83.0095 57.11 86.6973C58.1763 89.6092 58.7194 92.6867 58.7142 95.7877C58.8862 99.8517 57.977 103.889 56.0795 107.487C54.1819 111.084 51.3638 114.115 47.9127 116.268L47.7523 116.375Z" fill="url(#paint0_radial_71_2444)"/>
<path d="M138.228 61.0835H115.93L93.1508 87.8199V108.14L101.974 99.9047L122.133 129.85H142.078L113.738 87.0713L138.228 61.0835Z" fill="url(#paint1_radial_71_2444)"/>
<path opacity="0.5" d="M138.923 61.779C134.319 62.2491 129.679 62.2491 125.074 61.779C124.772 61.8077 124.467 61.8077 124.165 61.779C102.081 55.3622 96.3591 44.4003 81.3868 35.0426C68.7478 28.3543 54.4979 25.3124 40.2296 26.2567C25.9613 27.201 12.2367 32.0943 0.589355 40.3899C6.73695 45.2688 11.7845 51.3914 15.4013 58.3567C22.4597 71.1902 18.8771 79.2111 18.8771 79.2111C18.8771 79.2111 38.3946 58.8914 61.1206 57.822C80.2638 57.1268 102.509 64.5596 119.941 66.4846C123.01 66.8478 126.102 66.9907 129.191 66.9124C147.693 66.2172 154.858 55.6831 154.858 55.6831C150.384 59.379 144.828 61.5187 139.03 61.779H138.923Z" fill="#313132"/>
<path d="M67.9116 43.5981C95.0223 50.8169 101.065 61.2441 122.989 61.0837C121.641 60.2567 120.228 59.5414 118.764 58.9448C108.604 57.0198 101.974 46.6461 81.3332 34.882C68.8542 27.689 54.5225 24.3578 40.1503 25.3096C25.7781 26.2614 12.0108 31.4535 0.589301 40.2293C0.544807 40.2644 0.508846 40.309 0.484117 40.36C0.459388 40.4109 0.446533 40.4668 0.446533 40.5234C0.446533 40.58 0.459388 40.6359 0.484117 40.6869C0.508846 40.7378 0.544807 40.7825 0.589301 40.8175C6.41817 45.0454 11.224 50.5273 14.6527 56.8594C15.5617 55.7899 16.4707 54.8274 17.3263 53.9184C35.1327 36.0584 51.9232 39.4807 67.8046 43.6516L67.9116 43.5981Z" fill="url(#paint2_linear_71_2444)"/>
<path d="M141.223 59.6398C136.656 60.6148 131.965 60.8674 127.32 60.3884C105.396 58.7842 89.8889 48.3571 69.5692 41.7799C60.6615 38.3304 50.9135 37.6802 41.6266 39.9159C32.3396 42.1517 23.9556 47.167 17.5937 54.2925C16.6846 55.2016 15.7756 56.1641 14.92 57.2335L15.1874 57.7683C18.841 63.4272 20.48 70.1527 19.8395 76.8581C19.8395 76.8581 39.1967 57.6078 61.7622 56.8058C80.7985 56.1106 102.936 63.2225 120.582 65.0406C123.634 65.3968 126.708 65.5397 129.78 65.4683C148.174 64.8267 155.553 55.2016 155.553 55.2016C155.553 55.2016 153.094 57.3405 141.276 59.6398H141.223Z" fill="url(#paint3_linear_71_2444)"/>
</g>
<defs>
<radialGradient id="paint0_radial_71_2444" cx="0" cy="0" r="1" gradientUnits="userSpaceOnUse" gradientTransform="translate(-118.842 -71.3682) scale(2.86079 2.67364)">
<stop stop-color="#D60015"/>
<stop offset="0.01" stop-color="#D50015"/>
<stop offset="0.27" stop-color="#B60917"/>
<stop offset="0.53" stop-color="#A01019"/>
<stop offset="0.78" stop-color="#93141A"/>
<stop offset="1" stop-color="#8E151A"/>
</radialGradient>
<radialGradient id="paint1_radial_71_2444" cx="0" cy="0" r="1" gradientUnits="userSpaceOnUse" gradientTransform="translate(96.6901 -71.3686) scale(58.6463 54.8096)">
<stop stop-color="#D60015"/>
<stop offset="0.01" stop-color="#D50015"/>
<stop offset="0.27" stop-color="#B60917"/>
<stop offset="0.53" stop-color="#A01019"/>
<stop offset="0.78" stop-color="#93141A"/>
<stop offset="1" stop-color="#8E151A"/>
</radialGradient>
<linearGradient id="paint2_linear_71_2444" x1="101.492" y1="34.5077" x2="2.46084" y2="70.5484" gradientUnits="userSpaceOnUse">
<stop stop-color="#E78B62"/>
<stop offset="0.02" stop-color="#DC684E"/>
<stop offset="0.05" stop-color="#D24C3D"/>
<stop offset="0.08" stop-color="#CB3630"/>
<stop offset="0.11" stop-color="#C62627"/>
<stop offset="0.14" stop-color="#C31D22"/>
<stop offset="0.19" stop-color="#C21A20"/>
<stop offset="0.25" stop-color="#D04239"/>
<stop offset="0.33" stop-color="#E17157"/>
<stop offset="0.37" stop-color="#E78362"/>
<stop offset="0.39" stop-color="#E57A5C"/>
<stop offset="0.5" stop-color="#DD5A46"/>
<stop offset="0.61" stop-color="#D64235"/>
<stop offset="0.73" stop-color="#D23029"/>
<stop offset="0.85" stop-color="#CF2522"/>
<stop offset="1" stop-color="#CE2220"/>
</linearGradient>
<linearGradient id="paint3_linear_71_2444" x1="-29.7297" y1="95.627" x2="121.598" y2="40.55" gradientUnits="userSpaceOnUse">
<stop stop-color="#878787"/>
<stop offset="0.09" stop-color="#959595"/>
<stop offset="0.27" stop-color="#BABABA"/>
<stop offset="0.51" stop-color="#F6F6F6"/>
<stop offset="0.55" stop-color="white"/>
<stop offset="0.57" stop-color="#F5F5F5"/>
<stop offset="0.64" stop-color="#D9D9D9"/>
<stop offset="0.69" stop-color="#C8C8C8"/>
<stop offset="0.74" stop-color="#C2C2C2"/>
<stop offset="0.79" stop-color="#CFCFCF"/>
<stop offset="0.9" stop-color="#F2F2F2"/>
<stop offset="0.93" stop-color="white"/>
<stop offset="0.97" stop-color="#F3F3F3"/>
<stop offset="1" stop-color="#E0E0E0"/>
</linearGradient>
<clipPath id="clip0_71_2444">
<rect width="155" height="155" fill="white" transform="translate(0.5)"/>
</clipPath>
</defs>
</svg>
